/* XPM */
static char *searchall[] = {
/* columns rows colors chars-per-pixel */
"32 32 145 2",
"   c #56603F",
".  c #57613F",
"X  c #58623F",
"o  c #59633F",
"O  c #59643F",
"+  c #5A653F",
"@  c #5B663F",
"#  c #5B673F",
"$  c #5C683F",
"%  c #5D693F",
"&  c #5D6A3F",
"*  c #5E6B3F",
"=  c #5F6D3F",
"-  c #606E3F",
";  c #62713F",
":  c #63723F",
">  c #63733F",
",  c #65753F",
"<  c #687A3F",
"1  c #697A3F",
"2  c #697B3F",
"3  c #6A7C3F",
"4  c #6A7D3F",
"5  c #6B7D3F",
"6  c gray25",
"7  c #414140",
"8  c #424240",
"9  c #424340",
"0  c #434440",
"q  c #444640",
"w  c #454740",
"e  c #464840",
"r  c #474A40",
"t  c #484B40",
"y  c #484C40",
"u  c #494D40",
"i  c #4A4E40",
"p  c #4A4F40",
"a  c #4B5040",
"s  c #4C5140",
"d  c #4D5340",
"f  c #4E5340",
"g  c #4E5440",
"h  c #4F5540",
"j  c #515840",
"k  c #515940",
"l  c #525940",
"z  c #525A40",
"x  c #535B40",
"c  c #535C40",
"v  c #545D40",
"b  c #555E40",
"n  c #555F40",
"m  c #565F40",
"M  c #6C803F",
"N  c #6D803F",
"B  c #6E823F",
"V  c #6E833F",
"C  c #6F833F",
"Z  c #6F843F",
"A  c #71863F",
"S  c #72873F",
"D  c #748A3F",
"F  c #758C3F",
"G  c #768D3F",
"H  c #768E3F",
"J  c #78903F",
"K  c #79923F",
"L  c #7A943F",
"P  c #7B953F",
"I  c #7D973F",
"U  c #7E983F",
"Y  c #7E993F",
"T  c #7F9A3F",
"R  c #7F9B3F",
"E  c #809B3F",
"W  c #819D3F",
"Q  c #84A13E",
"!  c #86A43E",
"~  c #88A73E",
"^  c #89A93E",
"/  c #8AAA3E",
"(  c #8BAB3E",
")  c #8BAC3E",
"_  c #8CAD3E",
"`  c #8DAE3E",
"'  c #8FB13E",
"]  c #8FB23E",
"[  c #91B43E",
"{  c #91B53E",
"}  c #92B63E",
"|  c #93B73E",
" . c #93B83E",
".. c #94B93E",
"X. c #96BB3E",
"o. c #97BD3E",
"O. c #98BE3E",
"+. c #99C03E",
"@. c #9AC13E",
"#. c #9BC23E",
"$. c #9BC33E",
"%. c #9DC63E",
"&. c #9EC83E",
"*. c #A1CB3E",
"=. c #A2CC3E",
"-. c #A2CD3E",
";. c #A3CE3E",
":. c #A4D03E",
">. c #A5D13E",
",. c #A6D23E",
"<. c #A6D33E",
"1. c #A7D43E",
"2. c #A9D73E",
"3. c #AAD83E",
"4. c #AAD93E",
"5. c #ABDA3E",
"6. c #ADDD3E",
"7. c #AEDD3E",
"8. c #AEDE3E",
"9. c #AFDF3E",
"0. c #B0E03D",
"q. c #B0E13D",
"w. c #B1E33D",
"e. c #B2E33D",
"r. c #B5E93D",
"t. c #B7EB3D",
"y. c #B7EC3D",
"u. c #B8EC3D",
"i. c #B8ED3D",
"p. c #B9EE3D",
"a. c #BAEF3D",
"s. c #BCF23D",
"d. c #BDF33D",
"f. c #BDF43D",
"g. c #BEF53D",
"h. c #BFF63D",
"j. c #BFF73D",
"k. c #C0F83D",
"l. c #C1F93D",
"z. c #C1FA3D",
"x. c #C2FB3D",
"c. c #C3FC3D",
"v. c #C3FD3D",
"b. c #C4FE3D",
"n. c #C5FF3D",
/* pixels */
"f.f.f.f.f.f.f.f.f.f.f.f.f.f.f.f.f.f.f.f.f.f.f.f.f.f.f.f.f.f.f.f.",
"f.6 6 6 6 6 6 6 6 6 6 6 6 6 6 6 6 6 6 6 6 6 6 6 6 6 6 6 6 6 6 f.",
"f.6 6 6 6 6 6 6 6 6 6 6 6 6 6 6 6 6 6 6 6 6 6 6 6 6 6 6 6 6 6 f.",
"f.6 6 6 6 6 6 6 6 6 6 6 6 6 6 6 6 6 6 6 6 6 6 6 6 6 6 6 6 6 6 f.",
"f.6 6 6 6 6 6 6 6 6 6 6 6 6 t i & & d 6 6 6 6 6 6 6 6 6 6 6 6 f.",
"f.6 6 6 6 6 6 6 6 6 6 6 6 b G [ $.=...G x 6 6 6 6 6 6 6 6 6 6 f.",
"f.6 6 6 6 6 6 6 6 6 6 x Q r.k.v.u.u.v.x.=.& 6 6 6 6 6 6 6 6 6 f.",
"f.6 6 6 6 6 6 6 6 6 S q.v.e._ 1 - b - _ k.8.x 6 6 6 6 6 6 6 6 f.",
"f.6 6 6 6 6 6 6 d ( v.g.( x 6 6 6 6 6 6 ~ v.I 6 6 6 6 6 6 6 6 f.",
"f.6 6 6 6 6 6 d O.v.3.5 6 6 6 6 6 6 6 6 # f.O.6 6 6 6 6 6 6 6 f.",
"f.6 6 6 6 6 i $.v.%.b 6 6 6 6 6 q 6 6 6 1 k.[ 6 6 6 6 6 6 6 6 f.",
"f.6 6 6 6 q _ v.=.d 6 6 6 6 5 _ ~ S x ; ,.d.1 6 6 6 6 6 6 6 6 f.",
"f.6 6 6 6 M k.5.b 6 6 6 q W 1.[ 5.k.q.u.v.u.+ 6 6 6 6 6 6 6 6 f.",
"f.6 6 6 d -.v.M 6 6 6 6 t =.=.t b O.,.8.v.u.> 6 6 6 6 6 6 6 6 f.",
"f.6 6 6 M v.O.t 6 6 6 6 6 1 1.' + 6 x _ v...a 6 6 6 6 6 6 6 6 f.",
"f.6 6 0 ..v.M 6 6 6 6 6 8 6 o ( -.& ; d.q.+ 6 6 6 6 6 6 6 6 6 f.",
"f.6 6 j q.q.b 6 6 6 6 i E K 6 q ' 1.,.v.A 6 6 6 6 6 6 6 6 6 6 d.",
"f.6 6 * g...r 6 6 6 6 d e.k.E Q ,.v.v...q 6 6 6 6 6 6 6 6 6 6 d.",
"f.6 6 1 x.( 6 6 6 6 6 q , ..%.~ =.v.q.# 6 6 6 6 6 6 6 6 6 6 6 d.",
"f.6 6 , x.' 6 6 6 6 6 6 6 q r S d.n.Q 6 6 6 6 6 6 6 6 6 6 6 6 f.",
"f.6 6 . u.,.i 6 6 6 6 6 6 6 D a.v.e.# 6 6 6 6 6 6 6 6 6 6 6 6 f.",
"f.6 6 q } v.! d 6 6 6 t o [ x.f.v...t 6 6 6 6 6 6 6 h E S 6 6 f.",
"f.6 6 6 # 9.v.,.E G E ..f.k.[ U v.W 6 6 6 6 6 6 6 # =.v.~ 6 6 f.",
"f.6 6 6 6 # %.u.v.v.k.d.-.S q ; n.I 6 6 6 6 6 6 5 q.v.O.o 6 6 f.",
"f.6 6 6 6 6 q * S K S * q 6 6 & k.=.d 6 6 q m ! k.v.~ d 6 6 6 f.",
"f.6 6 6 6 6 6 6 6 6 6 6 6 6 6 0 _ v.,.W P | e.v.5.S 6 6 6 6 6 f.",
"f.6 6 6 6 6 6 6 6 6 6 6 6 6 6 6 d Q r.v.v.f.q.U   6 6 6 6 6 6 f.",
"f.6 6 6 6 6 6 6 6 6 6 6 6 6 6 6 6 6 i b S 5 a 6 6 6 6 6 6 6 6 f.",
"f.6 6 6 6 6 6 6 6 6 6 6 6 6 6 6 6 6 6 6 6 6 6 6 6 6 6 6 6 6 6 f.",
"f.6 6 6 6 6 6 6 6 6 6 6 6 6 6 6 6 6 6 6 6 6 6 6 6 6 6 6 6 6 6 f.",
"f.6 6 6 6 6 6 6 6 6 6 6 6 6 6 6 6 6 6 6 6 6 6 6 6 6 6 6 6 6 6 f.",
"f.f.f.f.f.f.d.d.f.f.f.f.f.f.f.f.f.f.f.g.f.f.f.f.f.f.f.f.f.f.f.f."
};
