/* XPM */
static char *searchall[] = {
/* columns rows colors chars-per-pixel */
"16 16 33 1",
"  c black",
". c #181F07",
"X c #171F08",
"o c #2D3C0F",
"O c #2E3C0E",
"+ c #435714",
"@ c #435615",
"# c #536B19",
"$ c #566F1B",
"% c #678620",
"& c #709023",
"* c #709123",
"= c #779A25",
"- c #779B25",
"; c #86AD2A",
": c #86AE2A",
"> c #93BE2E",
", c #99C630",
"< c #9ECD31",
"1 c #9FCE32",
"2 c #A2D233",
"3 c #A8DA34",
"4 c #AEE136",
"5 c #B0E537",
"6 c #B1E637",
"7 c #B5EB39",
"8 c #B7ED39",
"9 c #BBF33B",
"0 c #BCF43B",
"q c #BFF83C",
"w c #C0F93C",
"e c #C2FC3D",
"r c #C3FD3D",
/* pixels */
"                ",
"        X+      ",
"      $8rr0$    ",
"     >r3+X53    ",
"    3e$   >8    ",
"   >e#17q3r3    ",
"  $r$-1 &3r>    ",
"  w3 .,6@;eX    ",
" +ro   O9e>     ",
" >0  :1*eeX   =>",
" ><  *24r3   =r=",
" >8   ;rw>  ;r= ",
" %r5<ww$>0>wr=  ",
"  =53=X X>83o   ",
"                ",
"                "
};
